<?xml version="1.0" standalone="no"?>
<!DOCTYPE svg PUBLIC "-//W3C//DTD SVG 20010904//EN"
 "http://www.w3.org/TR/2001/REC-SVG-20010904/DTD/svg10.dtd">
<svg version="1.0" xmlns="http://www.w3.org/2000/svg"
 width="512.000000pt" height="512.000000pt" viewBox="0 0 512.000000 512.000000"
 preserveAspectRatio="xMidYMid meet">

<g transform="translate(0.000000,512.000000) scale(0.100000,-0.100000)"
fill="#000000" stroke="none">
<path d="M2512 5100 c-31 -29 -33 -58 -30 -338 l3 -254 28 -24 c15 -13 37 -24
47 -24 10 0 32 11 47 24 l28 24 3 254 c2 139 0 268 -3 286 -12 65 -78 93 -123
52z"/>
<path d="M800 4390 c-12 -12 -20 -33 -20 -53 0 -29 22 -54 199 -231 174 -174
203 -199 231 -199 41 0 73 32 73 73 0 28 -25 57 -199 231 -177 177 -202 199
-231 199 -20 0 -41 -8 -53 -20z"/>
<path d="M4036 4211 c-174 -174 -199 -203 -199 -231 0 -41 32 -73 73 -73 28 0
57 25 231 199 177 177 199 202 199 231 0 20 -8 41 -20 53 -12 12 -33 20 -53
20 -29 0 -54 -22 -231 -199z"/>
<path d="M2397 4279 c-94 -10 -260 -49 -347 -82 -338 -127 -647 -402 -806
-719 -40 -79 -41 -96 -13 -132 15 -19 30 -26 54 -26 40 0 61 23 123 137 280
515 908 786 1478 637 522 -135 904 -563 991 -1109 19 -121 13 -371 -12 -485
-57 -258 -160 -451 -361 -675 -174 -194 -229 -278 -264 -409 l-17 -61 -474 -3
c-261 -2 -555 0 -654 3 l-180 7 -23 73 c-32 100 -99 199 -228 339 -128 138
-189 216 -244 308 -154 258 -214 549 -180 879 13 122 12 130 -5 149 -27 30
-91 24 -116 -10 -42 -58 -53 -386 -20 -582 48 -278 172 -534 360 -744 200
-223 224 -253 261 -326 21 -43 41 -97 45 -120 3 -24 9 -176 13 -338 l7 -296
33 -66 c21 -44 52 -84 91 -120 l58 -54 5 -85 c8 -152 85 -270 218 -333 l65
-31 320 0 320 0 65 31 c133 63 210 181 218 333 l5 85 58 54 c39 36 70 76 91
120 l33 66 5 336 c5 317 7 338 28 391 29 73 103 177 194 276 251 269 375 509
430 828 17 102 19 147 15 305 -8 260 -44 406 -157 635 -274 553 -867 879
-1483 814z"/>
<path d="M3058 3250 c-67 -20 -104 -60 -350 -376 -138 -178 -255 -324 -258
-324 -4 0 -73 73 -154 163 -172 192 -200 212 -301 212 -103 -1 -173 -44 -221
-135 -27 -51 -25 -152 3 -206 12 -23 113 -142 224 -265 348 -386 351 -389 464
-389 71 0 127 23 172 71 73 78 333 424 333 444 0 47 -55 90 -100 78 -13 -3
-83 -86 -177 -207 -85 -110 -164 -209 -175 -218 -31 -27 -83 -23 -117 10 -16
15 -133 143 -260 284 -217 242 -231 260 -231 296 0 27 7 44 23 59 65 58 83 47
296 -187 163 -179 191 -205 220 -208 21 -2 40 3 53 15 11 10 142 174 290 365
148 190 276 352 284 359 26 21 80 16 109 -11 39 -36 34 -86 -13 -147 -156
-198 -163 -213 -117 -258 35 -35 74 -33 112 8 51 54 154 189 176 232 29 55 29
155 0 210 -55 104 -177 158 -285 125z"/>
<path d="M90 2678 c-42 -45 -15 -111 52 -123 18 -3 147 -5 286 -3 l254 3 24
28 c29 34 30 56 3 91 l-20 26 -289 0 c-285 0 -290 0 -310 -22z"/>
<path d="M4411 2674 c-27 -35 -26 -57 3 -91 l24 -28 254 -3 c139 -2 268 0 286
3 67 12 94 78 52 123 -20 22 -25 22 -310 22 l-289 0 -20 -26z"/>
<path d="M1190 1353 c-8 -3 -104 -94 -212 -202 -177 -175 -198 -199 -198 -228
0 -43 30 -73 73 -73 29 0 54 22 231 199 174 174 199 203 199 231 0 47 -52 87
-93 73z"/>
<path d="M3885 1350 c-31 -12 -48 -38 -48 -71 0 -26 28 -59 199 -230 177 -177
202 -199 231 -199 43 0 73 30 73 73 0 29 -21 53 -197 229 -109 108 -207 198
-218 201 -11 3 -29 2 -40 -3z"/>
</g>
</svg>
